<?xml version="1.0" standalone="no"?>
<!DOCTYPE svg PUBLIC "-//W3C//DTD SVG 20010904//EN"
 "http://www.w3.org/TR/2001/REC-SVG-20010904/DTD/svg10.dtd">
<svg version="1.0" xmlns="http://www.w3.org/2000/svg"
 width="512.000000pt" height="512.000000pt" viewBox="0 0 512.000000 512.000000"
 preserveAspectRatio="xMidYMid meet">

<g transform="translate(0.000000,512.000000) scale(0.100000,-0.100000)"
fill="#000000" stroke="none">
<path d="M491 5084 c-113 -16 -148 -27 -223 -67 -115 -60 -196 -182 -223 -334
-22 -120 -22 -4166 0 -4278 37 -195 144 -310 335 -362 61 -17 184 -18 2170
-18 1716 0 2117 2 2170 13 182 38 296 143 347 322 17 62 18 159 18 2185 0
2004 -1 2124 -18 2185 -19 70 -56 146 -94 197 -56 73 -179 134 -310 152 -41 6
-871 12 -2073 15 -1690 4 -2020 2 -2099 -10z m2870 -691 c271 -177 348 -232
345 -246 -2 -9 -104 -202 -225 -427 -122 -226 -221 -414 -221 -418 1 -4 47
-36 103 -72 188 -120 378 -333 483 -543 43 -85 97 -244 121 -357 24 -118 25
-390 0 -513 -113 -561 -528 -981 -1089 -1104 -105 -22 -416 -25 -523 -4 -566
110 -999 542 -1112 1108 -27 137 -25 397 5 532 28 122 71 251 117 342 101 199
287 410 465 527 52 34 103 67 112 74 15 12 -7 56 -213 438 -179 332 -226 427
-216 436 6 6 156 105 332 219 176 115 327 214 335 222 11 10 97 13 424 13
l409 0 348 -227z"/>
<path d="M2320 4458 c0 -7 -7 -78 -15 -158 -8 -80 -15 -155 -15 -167 l0 -23
330 0 c182 0 330 3 330 8 0 4 -9 79 -20 166 -11 88 -20 166 -20 173 0 19 -590
19 -590 1z"/>
<path d="M1981 4300 c-101 -66 -177 -122 -170 -124 17 -6 323 -55 326 -52 2 2
30 296 28 296 -1 0 -84 -54 -184 -120z"/>
<path d="M3070 4379 c1 -42 28 -240 33 -246 8 -8 308 40 305 48 -3 8 -304 208
-325 216 -9 3 -13 -3 -13 -18z"/>
<path d="M1774 3957 c25 -45 97 -179 160 -297 64 -118 116 -212 116 -208 0 3
16 120 35 259 20 138 32 255 28 259 -4 4 -87 20 -183 34 -96 15 -181 29 -188
32 -7 2 7 -33 32 -79z"/>
<path d="M3298 4007 c-166 -28 -178 -31 -178 -51 0 -12 11 -124 25 -250 14
-126 25 -233 25 -240 0 -6 70 119 156 278 85 158 154 289 152 290 -2 2 -83
-11 -180 -27z"/>
<path d="M2270 3953 c-1 -5 -18 -129 -39 -278 -21 -148 -37 -271 -36 -273 1
-1 37 7 80 18 193 49 439 51 639 5 60 -13 111 -24 112 -22 1 1 -11 119 -27
262 -16 143 -29 268 -29 278 0 16 -23 17 -350 17 -192 0 -350 -3 -350 -7z"/>
<path d="M2468 3050 c-154 -25 -276 -71 -405 -155 -203 -133 -346 -334 -415
-583 -32 -115 -32 -363 0 -482 29 -108 105 -267 166 -347 104 -137 264 -261
417 -322 124 -50 186 -63 327 -68 159 -7 250 6 381 53 175 62 343 186 457 337
62 81 139 242 165 342 27 104 36 289 19 392 -64 403 -352 718 -743 813 -94 23
-284 33 -369 20z"/>
</g>
</svg>
